<svg xmlns="http://www.w3.org/2000/svg" viewBox="0 0 1200 630" width="1200" height="630" fill="none">
  <rect width="1200" height="630" fill="#0A1628"/>
  <rect x="0" y="0" width="5" height="630" fill="#B5934A" opacity="0.65"/>
  <rect x="1195" y="0" width="5" height="630" fill="#B5934A" opacity="0.18"/>
  <rect x="0" y="621" width="1200" height="4" fill="#B5934A" opacity="0.28"/>
  <rect x="0" y="0" width="1200" height="4" fill="#B5934A" opacity="0.12"/>
  <g opacity="0.04" transform="translate(580, 10) scale(8.5)">
    <rect x="1" y="51" width="17" height="24" rx="2" fill="#B5934A"/>
    <rect x="20" y="29" width="22" height="46" rx="2" fill="#B5934A"/>
    <rect x="46" y="10" width="30" height="65" rx="2.5" fill="#B5934A"/>
  </g>
  <g transform="translate(160, 195) scale(3.0)">
    <rect x="0" y="75.5" width="80" height="0.8" rx="0.4" fill="#B5934A" opacity="0.28"/>
    <rect x="1" y="51" width="17" height="24" rx="2" fill="#B5934A"/>
    <rect x="1" y="51" width="17" height="1.8" rx="1" fill="#B5934A" opacity="0.55"/>
    <rect x="3.5" y="57" width="4.5" height="7" rx="1.5" fill="white" opacity="0.82"/>
    <rect x="10" y="57" width="4.5" height="7" rx="1.5" fill="white" opacity="0.82"/>
    <rect x="3.5" y="67" width="4.5" height="5.5" rx="1.5" fill="white" opacity="0.82"/>
    <rect x="10" y="67" width="4.5" height="5.5" rx="1.5" fill="white" opacity="0.82"/>
    <rect x="20" y="29" width="22" height="46" rx="2.5" fill="#B5934A"/>
    <rect x="20" y="29" width="22" height="2" rx="1" fill="#B5934A" opacity="0.55"/>
    <rect x="23" y="36" width="7" height="6.5" rx="1.3" fill="white" opacity="0.82"/>
    <rect x="33" y="36" width="7" height="6.5" rx="1.3" fill="white" opacity="0.82"/>
    <rect x="23" y="46" width="7" height="6.5" rx="1.3" fill="white" opacity="0.82"/>
    <rect x="33" y="46" width="7" height="6.5" rx="1.3" fill="white" opacity="0.82"/>
    <rect x="23" y="56" width="7" height="6.5" rx="1.3" fill="white" opacity="0.82"/>
    <rect x="33" y="56" width="7" height="6.5" rx="1.3" fill="white" opacity="0.82"/>
    <rect x="46" y="10" width="30" height="65" rx="2.5" fill="#B5934A"/>
    <rect x="46" y="10" width="30" height="2.2" rx="1.1" fill="#B5934A" opacity="0.55"/>
    <rect x="49.5" y="16.5" width="9" height="6.5" rx="1.2" fill="white" opacity="0.82"/>
    <rect x="63" y="16.5" width="9" height="6.5" rx="1.2" fill="white" opacity="0.82"/>
    <rect x="49.5" y="27" width="9" height="6.5" rx="1.2" fill="white" opacity="0.82"/>
    <rect x="63" y="27" width="9" height="6.5" rx="1.2" fill="white" opacity="0.82"/>
    <rect x="49.5" y="37.5" width="9" height="6.5" rx="1.2" fill="white" opacity="0.82"/>
    <rect x="63" y="37.5" width="9" height="6.5" rx="1.2" fill="white" opacity="0.82"/>
    <rect x="49.5" y="48" width="9" height="6.5" rx="1.2" fill="white" opacity="0.82"/>
    <rect x="63" y="48" width="9" height="6.5" rx="1.2" fill="white" opacity="0.82"/>
  </g>
  <rect x="510" y="175" width="1.5" height="280" rx="1" fill="#B5934A" opacity="0.32"/>
  <text x="565" y="296" font-family="Georgia, 'Times New Roman', serif" font-size="108" font-weight="bold" fill="white" text-anchor="start" letter-spacing="-2">Semsar</text>
  <text x="569" y="388" font-family="'Segoe UI', Arial, sans-serif" font-size="52" font-weight="600" fill="#B5934A" text-anchor="start">سمسار</text>
  <text x="570" y="456" font-family="'Segoe UI', Arial, sans-serif" font-size="20" fill="white" opacity="0.38" text-anchor="start" letter-spacing="5">PREMIUM RED SEA REAL ESTATE</text>
</svg>